# xmcd
#
# Track frame offsets:
# 150
# 23351
# 50497
# 83075
# 109421
# 135650
# 171951
# 193086
# 219512
# 250851
#
# Disc length: 3615 seconds
#
#
# Revision: 2
# Processed by: cddbd v1.5.2PL0 Copyright (c) Steve Scherf et al.
# Submitted via: jack 3.1.1
#
DISCID=850e1d0a
DTITLE=Sheila Burnford - The Incredible Journey Disc 3
DYEAR=1997
DGENRE=Speech
TTITLE0=Chapter 9 (pt.1)
TTITLE1=Chapter 9 (pt.2)
TTITLE2=Chapter 9 (pt.3)
TTITLE3=Chapter 9 (pt.4)
TTITLE4=Chapter 9 (pt.5)
TTITLE5=Chapter 10 (pt.1)
TTITLE6=Chapter 10 (pt.2)
TTITLE7=Chapter 11 (pt.1)
TTITLE8=Chapter 11 (pt.2)
TTITLE9=Chapter 11 (pt.3)
EXTD=The Incredible Journy by Sheila Burnford\nread by Megan Follows Random House, Inc.\n3 CDs
EXTT0=
EXTT1=
EXTT2=
EXTT3=
EXTT4=
EXTT5=
EXTT6=
EXTT7=
EXTT8=
EXTT9=
PLAYORDER=
